<svg width="34" height="34" viewBox="0 0 34 34" fill="none" xmlns="http://www.w3.org/2000/svg">
<path d="M34 17C34 26.3888 26.3888 34 17 34C7.61116 34 0 26.3888 0 17C0 7.61116 7.61116 0 17 0C26.3888 0 34 7.61116 34 17ZM2.5517 17C2.5517 24.9796 9.02043 31.4483 17 31.4483C24.9796 31.4483 31.4483 24.9796 31.4483 17C31.4483 9.02043 24.9796 2.5517 17 2.5517C9.02043 2.5517 2.5517 9.02043 2.5517 17Z" fill="#9F9F9F"/>
<path fill-rule="evenodd" clip-rule="evenodd" d="M17.0099 5C10.3687 5 5 10.2708 5 16.7915C5 22.0039 8.43994 26.416 13.2121 27.9776C13.8087 28.095 14.0272 27.7239 14.0272 27.4117C14.0272 27.1384 14.0076 26.2014 14.0076 25.2251C10.6667 25.928 9.97099 23.8194 9.97099 23.8194C9.43409 22.4529 8.63858 22.1016 8.63858 22.1016C7.54511 21.3793 8.71823 21.3793 8.71823 21.3793C9.93117 21.4574 10.5676 22.5897 10.5676 22.5897C11.6412 24.3856 13.3711 23.8781 14.0671 23.5657C14.1664 22.8043 14.4847 22.2772 14.8228 21.9845C12.1582 21.7111 9.35469 20.696 9.35469 16.1667C9.35469 14.8782 9.8316 13.8241 10.5873 13.0042C10.4681 12.7114 10.0504 11.5008 10.7068 9.88053C10.7068 9.88053 11.7208 9.56812 14.0073 11.0909C14.9863 10.8328 15.9958 10.7015 17.0099 10.7004C18.024 10.7004 19.0577 10.8372 20.0123 11.0909C22.299 9.56812 23.3131 9.88053 23.3131 9.88053C23.9695 11.5008 23.5515 12.7114 23.4323 13.0042C24.2079 13.8241 24.6652 14.8782 24.6652 16.1667C24.6652 20.696 21.8617 21.6915 19.1772 21.9845C19.6148 22.3553 19.9924 23.058 19.9924 24.1709C19.9924 25.7521 19.9727 27.0212 19.9727 27.4115C19.9727 27.7239 20.1915 28.095 20.7879 27.9779C25.56 26.4158 28.9999 22.0039 28.9999 16.7915C29.0196 10.2708 23.6312 5 17.0099 5Z" fill="#9F9F9F"/>
</svg>
