<svg width="257" height="257" viewBox="0 0 257 257" fill="none" xmlns="http://www.w3.org/2000/svg">
<path fill-rule="evenodd" clip-rule="evenodd" d="M4 0H0V4C0 1.79086 1.79086 0 4 0ZM58 0C60.2091 0 62 1.79086 62 4V58C62 60.2091 60.2091 62 58 62H4C1.79086 62 0 60.2091 0 58V69C0 66.7909 1.79086 65 4 65H58C60.2091 65 62 66.7909 62 69V123C62 125.209 60.2091 127 58 127H4C1.79086 127 0 125.209 0 123V134C0 131.791 1.79086 130 4 130H58C60.2091 130 62 131.791 62 134V188C62 190.209 60.2091 192 58 192H4C1.79086 192 0 190.209 0 188V199C0 196.791 1.79086 195 4 195H58C60.2091 195 62 196.791 62 199V253C62 255.209 60.2091 257 58 257H69C66.7909 257 65 255.209 65 253V199C65 196.791 66.7909 195 69 195H123C125.209 195 127 196.791 127 199V253C127 255.209 125.209 257 123 257H134C131.791 257 130 255.209 130 253V199C130 196.791 131.791 195 134 195H188C190.209 195 192 196.791 192 199V253C192 255.209 190.209 257 188 257H199C196.791 257 195 255.209 195 253V199C195 196.791 196.791 195 199 195H253C255.209 195 257 196.791 257 199V188C257 190.209 255.209 192 253 192H199C196.791 192 195 190.209 195 188V134C195 131.791 196.791 130 199 130H253C255.209 130 257 131.791 257 134V123C257 125.209 255.209 127 253 127H199C196.791 127 195 125.209 195 123V69C195 66.7909 196.791 65 199 65H253C255.209 65 257 66.7909 257 69V58C257 60.2091 255.209 62 253 62H199C196.791 62 195 60.2091 195 58V4C195 1.79086 196.791 0 199 0H188C190.209 0 192 1.79086 192 4V58C192 60.2091 190.209 62 188 62H134C131.791 62 130 60.2091 130 58V4C130 1.79086 131.791 0 134 0H123C125.209 0 127 1.79086 127 4V58C127 60.2091 125.209 62 123 62H69C66.7909 62 65 60.2091 65 58V4C65 1.79086 66.7909 0 69 0H58ZM253 0C255.209 0 257 1.79086 257 4V0H253ZM257 253C257 255.209 255.209 257 253 257H257V253ZM4 257C1.79086 257 0 255.209 0 253V257H4ZM130 134C130 131.791 131.791 130 134 130H188C190.209 130 192 131.791 192 134V188C192 190.209 190.209 192 188 192H134C131.791 192 130 190.209 130 188V134ZM69 130C66.7909 130 65 131.791 65 134V188C65 190.209 66.7909 192 69 192H123C125.209 192 127 190.209 127 188V134C127 131.791 125.209 130 123 130H69ZM130 69C130 66.7909 131.791 65 134 65H188C190.209 65 192 66.7909 192 69V123C192 125.209 190.209 127 188 127H134C131.791 127 130 125.209 130 123V69ZM69 65C66.7909 65 65 66.7909 65 69V123C65 125.209 66.7909 127 69 127H123C125.209 127 127 125.209 127 123V69C127 66.7909 125.209 65 123 65H69Z" fill="#C6C6C6"/>
</svg>
