<svg width="512" height="512" viewBox="0 0 512 512" fill="none" xmlns="http://www.w3.org/2000/svg">
<path fill-rule="evenodd" clip-rule="evenodd" d="M100 1.5C100 0.671573 100.672 0 101.5 0C102.328 0 103 0.671571 103 1.5V92C103 96.4183 106.582 100 111 100H195C199.418 100 203 96.4183 203 92V1.5C203 0.671573 203.672 0 204.5 0C205.328 0 206 0.671571 206 1.5V92C206 96.4183 209.582 100 214 100H298C302.418 100 306 96.4183 306 92V1.5C306 0.671573 306.672 0 307.5 0C308.328 0 309 0.671571 309 1.5V92C309 96.4183 312.582 100 317 100H401C405.418 100 409 96.4183 409 92V1.5C409 0.671573 409.672 0 410.5 0C411.328 0 412 0.671571 412 1.5V92C412 96.4183 415.582 100 420 100H510.5C511.328 100 512 100.672 512 101.5C512 102.328 511.328 103 510.5 103H420C415.582 103 412 106.582 412 111V195C412 199.418 415.582 203 420 203H510.5C511.328 203 512 203.672 512 204.5C512 205.328 511.328 206 510.5 206H420C415.582 206 412 209.582 412 214V298C412 302.418 415.582 306 420 306H510.5C511.328 306 512 306.672 512 307.5C512 308.328 511.328 309 510.5 309H420C415.582 309 412 312.582 412 317V401C412 405.418 415.582 409 420 409H510.5C511.328 409 512 409.672 512 410.5C512 411.328 511.328 412 510.5 412H420C415.582 412 412 415.582 412 420V510.5C412 511.328 411.328 512 410.5 512C409.672 512 409 511.328 409 510.5V420C409 415.582 405.418 412 401 412H317C312.582 412 309 415.582 309 420V510.5C309 511.328 308.328 512 307.5 512C306.672 512 306 511.328 306 510.5V420C306 415.582 302.418 412 298 412H214C209.582 412 206 415.582 206 420V510.5C206 511.328 205.328 512 204.5 512C203.672 512 203 511.328 203 510.5V420C203 415.582 199.418 412 195 412H111C106.582 412 103 415.582 103 420V510.5C103 511.328 102.328 512 101.5 512C100.672 512 100 511.328 100 510.5V420C100 415.582 96.4183 412 92 412H1.5C0.671573 412 0 411.328 0 410.5C0 409.672 0.671571 409 1.5 409H92C96.4183 409 100 405.418 100 401V317C100 312.582 96.4183 309 92 309H1.5C0.671573 309 0 308.328 0 307.5C0 306.672 0.671571 306 1.5 306H92C96.4183 306 100 302.418 100 298V214C100 209.582 96.4183 206 92 206H1.5C0.671573 206 0 205.328 0 204.5C0 203.672 0.671571 203 1.5 203H92C96.4183 203 100 199.418 100 195V111C100 106.582 96.4183 103 92 103H1.5C0.671573 103 0 102.328 0 101.5C0 100.672 0.671571 100 1.5 100H92C96.4183 100 100 96.4183 100 92V1.5ZM309 111C309 106.582 312.582 103 317 103H401C405.418 103 409 106.582 409 111V195C409 199.418 405.418 203 401 203H317C312.582 203 309 199.418 309 195V111ZM206 111C206 106.582 209.582 103 214 103H298C302.418 103 306 106.582 306 111V195C306 199.418 302.418 203 298 203H214C209.582 203 206 199.418 206 195V111ZM103 111C103 106.582 106.582 103 111 103H195C199.418 103 203 106.582 203 111V195C203 199.418 199.418 203 195 203H111C106.582 203 103 199.418 103 195V111ZM309 214C309 209.582 312.582 206 317 206H401C405.418 206 409 209.582 409 214V298C409 302.418 405.418 306 401 306H317C312.582 306 309 302.418 309 298V214ZM206 214C206 209.582 209.582 206 214 206H298C302.418 206 306 209.582 306 214V298C306 302.418 302.418 306 298 306H214C209.582 306 206 302.418 206 298V214ZM103 214C103 209.582 106.582 206 111 206H195C199.418 206 203 209.582 203 214V298C203 302.418 199.418 306 195 306H111C106.582 306 103 302.418 103 298V214ZM309 317C309 312.582 312.582 309 317 309H401C405.418 309 409 312.582 409 317V401C409 405.418 405.418 409 401 409H317C312.582 409 309 405.418 309 401V317ZM206 317C206 312.582 209.582 309 214 309H298C302.418 309 306 312.582 306 317V401C306 405.418 302.418 409 298 409H214C209.582 409 206 405.418 206 401V317ZM103 317C103 312.582 106.582 309 111 309H195C199.418 309 203 312.582 203 317V401C203 405.418 199.418 409 195 409H111C106.582 409 103 405.418 103 401V317Z" fill="#C6C6C6"/>
</svg>
