<svg width="34" height="34" viewBox="0 0 34 34" fill="none" xmlns="http://www.w3.org/2000/svg">
<path d="M14.6094 20.3691V19.3574C14.6094 18.8926 14.6549 18.4733 14.7461 18.0996C14.8464 17.7168 14.9922 17.3568 15.1836 17.0195C15.3841 16.6732 15.6393 16.3405 15.9492 16.0215C16.2591 15.6934 16.6328 15.3561 17.0703 15.0098C17.4531 14.709 17.7767 14.4401 18.041 14.2031C18.3053 13.9661 18.5195 13.7337 18.6836 13.5059C18.8477 13.2689 18.9661 13.0228 19.0391 12.7676C19.112 12.5124 19.1484 12.2161 19.1484 11.8789C19.1484 11.3594 18.9707 10.931 18.6152 10.5938C18.2689 10.2565 17.7357 10.0879 17.0156 10.0879C16.3867 10.0879 15.7077 10.2201 14.9785 10.4844C14.2585 10.7487 13.5111 11.0723 12.7363 11.4551L11.3418 8.43359C11.7337 8.20573 12.1576 7.99154 12.6133 7.79102C13.0781 7.58138 13.5566 7.39909 14.0488 7.24414C14.5501 7.08008 15.056 6.95247 15.5664 6.86133C16.0768 6.77018 16.5781 6.72461 17.0703 6.72461C18 6.72461 18.8385 6.83854 19.5859 7.06641C20.3333 7.28516 20.9668 7.60872 21.4863 8.03711C22.0059 8.46549 22.4023 8.98503 22.6758 9.5957C22.9583 10.2064 23.0996 10.9036 23.0996 11.6875C23.0996 12.2617 23.0358 12.7767 22.9082 13.2324C22.7806 13.679 22.5892 14.0983 22.334 14.4902C22.0879 14.873 21.7734 15.2467 21.3906 15.6113C21.0169 15.9668 20.5794 16.3451 20.0781 16.7461C19.6953 17.0469 19.3809 17.3112 19.1348 17.5391C18.8978 17.7578 18.7109 17.9674 18.5742 18.168C18.4375 18.3685 18.3418 18.5781 18.2871 18.7969C18.2415 19.0065 18.2188 19.2572 18.2188 19.5488V20.3691H14.6094ZM14.1582 25.0449C14.1582 24.6165 14.2174 24.2565 14.3359 23.9648C14.4635 23.6641 14.6367 23.4225 14.8555 23.2402C15.0742 23.0579 15.3294 22.9258 15.6211 22.8438C15.9219 22.7617 16.2409 22.7207 16.5781 22.7207C16.8971 22.7207 17.1979 22.7617 17.4805 22.8438C17.7721 22.9258 18.0273 23.0579 18.2461 23.2402C18.4648 23.4225 18.638 23.6641 18.7656 23.9648C18.8932 24.2565 18.957 24.6165 18.957 25.0449C18.957 25.4551 18.8932 25.806 18.7656 26.0977C18.638 26.3893 18.4648 26.6309 18.2461 26.8223C18.0273 27.0137 17.7721 27.1504 17.4805 27.2324C17.1979 27.3236 16.8971 27.3691 16.5781 27.3691C16.2409 27.3691 15.9219 27.3236 15.6211 27.2324C15.3294 27.1504 15.0742 27.0137 14.8555 26.8223C14.6367 26.6309 14.4635 26.3893 14.3359 26.0977C14.2174 25.806 14.1582 25.4551 14.1582 25.0449Z" fill="#9F9F9F"/>
<path d="M34 17C34 26.3888 26.3888 34 17 34C7.61116 34 0 26.3888 0 17C0 7.61116 7.61116 0 17 0C26.3888 0 34 7.61116 34 17ZM2.5517 17C2.5517 24.9796 9.02042 31.4483 17 31.4483C24.9796 31.4483 31.4483 24.9796 31.4483 17C31.4483 9.02042 24.9796 2.5517 17 2.5517C9.02042 2.5517 2.5517 9.02042 2.5517 17Z" fill="#9F9F9F"/>
</svg>
