<svg width="490" height="117" viewBox="0 0 490 117" fill="none" xmlns="http://www.w3.org/2000/svg">
<ellipse cx="252.5" cy="63" rx="26.5" ry="26" fill="#555555"/>
<path d="M158.243 93.7301L172.979 38.7357L213.238 78.9944L158.243 93.7301Z" fill="#555555"/>
<path d="M113 30L146 63L113 96L80 63L113 30Z" fill="#555555"/>
<path d="M391 37L416.981 52V82L391 97L365.019 82V52L391 37Z" fill="#555555"/>
<path d="M327.5 38L354.605 58.0385L344.252 90.4615H310.748L300.395 58.0385L327.5 38Z" fill="#555555"/>
<path d="M30 38L60 68L30 98L0 68L30 38Z" fill="#555555"/>
<path d="M29.7155 44.3158L53.3997 68L29.7155 91.6842L6.0313 68L29.7155 44.3158Z" fill="#EDEDED"/>
<path d="M465.5 39L490 53V81L465.5 95L441 81V53L465.5 39Z" fill="#555555"/>
<path d="M465.61 44.4444L485.006 55.7222V78.2777L465.61 89.5555L446.214 78.2777V55.7222L465.61 44.4444Z" fill="#EDEDED"/>
<path d="M209.585 18V4.734H211.223V16.488H217.901V18H209.585ZM223.239 18V4.734H231.987V6.246H224.877V10.278H231.231V11.772H224.877V16.488H231.987V18H223.239ZM239.601 18L237.747 16.11V6.624L239.637 4.734H245.937L247.773 6.57L246.729 7.632L245.289 6.192H240.375L239.385 7.182V15.552L240.375 16.542H244.353L246.405 14.634V12.474H243.345V11.034H247.773V18H246.405V16.47L244.767 18H239.601ZM254.486 18V4.734H263.234V6.246H256.124V10.278H262.478V11.772H256.124V16.488H263.234V18H254.486ZM269.336 18V4.734H271.568L277.49 15.408V4.734H279.128V18H277.184L271.37 7.524H270.974V18H269.336ZM285.856 18V4.734H293.056L295.81 7.524V15.21L293.056 18H285.856ZM287.494 16.542H292.318L294.172 14.652V8.082L292.318 6.192H287.494V16.542Z" fill="#555555"/>
<path d="M177 27.9999L177 24L252 24L252 27.9999" stroke="#555555" stroke-width="3" stroke-linecap="round"/>
<path d="M252 27.9999L252 24L327 24L327 27.9999" stroke="#555555" stroke-width="3" stroke-linecap="round"/>
<path d="M113 103L113 107L177 107L177 103" stroke="#555555" stroke-width="3" stroke-linecap="round"/>
<path d="M327 103L327 107L391 107L391 103" stroke="#555555" stroke-width="3" stroke-linecap="round"/>
</svg>
