<svg width="34" height="34" viewBox="0 0 34 34" fill="none" xmlns="http://www.w3.org/2000/svg">
<path d="M22.8917 11.1083C24.454 12.6711 25.3316 14.7903 25.3316 17C25.3316 19.2097 24.454 21.3289 22.8917 22.8917M19.9501 14.05C20.7312 14.8314 21.17 15.891 21.17 16.9958C21.17 18.1007 20.7312 19.1603 19.9501 19.9417M16.1667 11.1667L12.0001 14.5H8.66675V19.5H12.0001L16.1667 22.8333V11.1667Z" stroke="#9F9F9F" stroke-width="2" stroke-linecap="round" stroke-linejoin="round"/>
<path d="M34 17C34 26.3888 26.3888 34 17 34C7.61116 34 0 26.3888 0 17C0 7.61116 7.61116 0 17 0C26.3888 0 34 7.61116 34 17ZM2.5517 17C2.5517 24.9796 9.02042 31.4483 17 31.4483C24.9796 31.4483 31.4483 24.9796 31.4483 17C31.4483 9.02042 24.9796 2.5517 17 2.5517C9.02042 2.5517 2.5517 9.02042 2.5517 17Z" fill="#9F9F9F"/>
</svg>
